<mxfile host="app.diagrams.net" agent="Mozilla/5.0 (Windows NT 10.0; Win64; x64) AppleWebKit/537.36 (KHTML, like Gecko) Chrome/140.0.0.0 Safari/537.36" version="28.2.3">
  <diagram id="C5RBs43oDa-KdzZeNtuy" name="Page-1">
    <mxGraphModel dx="1564" dy="1324" grid="1" gridSize="10" guides="1" tooltips="1" connect="1" arrows="1" fold="1" page="1" pageScale="1" pageWidth="827" pageHeight="1169" background="none" math="0" shadow="1">
      <root>
        <mxCell id="WIyWlLk6GJQsqaUBKTNV-0" />
        <mxCell id="WIyWlLk6GJQsqaUBKTNV-1" parent="WIyWlLk6GJQsqaUBKTNV-0" />
        <mxCell id="GVwjSuNQwqoJ1QP9OxGt-86" style="edgeStyle=orthogonalEdgeStyle;rounded=0;orthogonalLoop=1;jettySize=auto;html=1;exitX=0.5;exitY=1;exitDx=0;exitDy=0;entryX=0.5;entryY=0;entryDx=0;entryDy=0;" edge="1" parent="WIyWlLk6GJQsqaUBKTNV-1" source="GVwjSuNQwqoJ1QP9OxGt-87" target="GVwjSuNQwqoJ1QP9OxGt-89">
          <mxGeometry relative="1" as="geometry" />
        </mxCell>
        <mxCell id="GVwjSuNQwqoJ1QP9OxGt-87" value="Project Submission" style="rounded=0;whiteSpace=wrap;html=1;" vertex="1" parent="WIyWlLk6GJQsqaUBKTNV-1">
          <mxGeometry x="360" y="40" width="120" height="60" as="geometry" />
        </mxCell>
        <mxCell id="GVwjSuNQwqoJ1QP9OxGt-88" style="edgeStyle=orthogonalEdgeStyle;rounded=0;orthogonalLoop=1;jettySize=auto;html=1;entryX=0.5;entryY=0;entryDx=0;entryDy=0;" edge="1" parent="WIyWlLk6GJQsqaUBKTNV-1" source="GVwjSuNQwqoJ1QP9OxGt-89">
          <mxGeometry relative="1" as="geometry">
            <mxPoint x="420" y="270" as="targetPoint" />
          </mxGeometry>
        </mxCell>
        <mxCell id="GVwjSuNQwqoJ1QP9OxGt-89" value="Admin Approval" style="rhombus;whiteSpace=wrap;html=1;fillColor=#ffe6cc;strokeColor=#d79b00;" vertex="1" parent="WIyWlLk6GJQsqaUBKTNV-1">
          <mxGeometry x="360" y="150" width="120" height="80" as="geometry" />
        </mxCell>
        <mxCell id="GVwjSuNQwqoJ1QP9OxGt-90" style="edgeStyle=orthogonalEdgeStyle;rounded=0;orthogonalLoop=1;jettySize=auto;html=1;exitX=0.5;exitY=1;exitDx=0;exitDy=0;entryX=0.5;entryY=0;entryDx=0;entryDy=0;" edge="1" parent="WIyWlLk6GJQsqaUBKTNV-1" source="GVwjSuNQwqoJ1QP9OxGt-91" target="GVwjSuNQwqoJ1QP9OxGt-94">
          <mxGeometry relative="1" as="geometry" />
        </mxCell>
        <mxCell id="GVwjSuNQwqoJ1QP9OxGt-91" value="Fundraising" style="rounded=1;whiteSpace=wrap;html=1;" vertex="1" parent="WIyWlLk6GJQsqaUBKTNV-1">
          <mxGeometry x="360" y="270" width="120" height="60" as="geometry" />
        </mxCell>
        <mxCell id="GVwjSuNQwqoJ1QP9OxGt-92" style="edgeStyle=orthogonalEdgeStyle;rounded=0;orthogonalLoop=1;jettySize=auto;html=1;exitX=0;exitY=1;exitDx=0;exitDy=0;" edge="1" parent="WIyWlLk6GJQsqaUBKTNV-1" source="GVwjSuNQwqoJ1QP9OxGt-94" target="GVwjSuNQwqoJ1QP9OxGt-110">
          <mxGeometry relative="1" as="geometry" />
        </mxCell>
        <mxCell id="GVwjSuNQwqoJ1QP9OxGt-93" style="edgeStyle=orthogonalEdgeStyle;rounded=0;orthogonalLoop=1;jettySize=auto;html=1;exitX=1;exitY=1;exitDx=0;exitDy=0;entryX=0;entryY=0.5;entryDx=0;entryDy=0;" edge="1" parent="WIyWlLk6GJQsqaUBKTNV-1" source="GVwjSuNQwqoJ1QP9OxGt-94" target="GVwjSuNQwqoJ1QP9OxGt-111">
          <mxGeometry relative="1" as="geometry" />
        </mxCell>
        <mxCell id="GVwjSuNQwqoJ1QP9OxGt-94" value="Goal Reached" style="rhombus;whiteSpace=wrap;html=1;" vertex="1" parent="WIyWlLk6GJQsqaUBKTNV-1">
          <mxGeometry x="360" y="370" width="120" height="80" as="geometry" />
        </mxCell>
        <mxCell id="GVwjSuNQwqoJ1QP9OxGt-95" value="Refund Donors" style="rounded=0;whiteSpace=wrap;html=1;" vertex="1" parent="WIyWlLk6GJQsqaUBKTNV-1">
          <mxGeometry x="210" y="480" width="120" height="60" as="geometry" />
        </mxCell>
        <mxCell id="GVwjSuNQwqoJ1QP9OxGt-96" value="Funds Secured" style="rounded=0;whiteSpace=wrap;html=1;" vertex="1" parent="WIyWlLk6GJQsqaUBKTNV-1">
          <mxGeometry x="470" y="470" width="120" height="60" as="geometry" />
        </mxCell>
        <mxCell id="GVwjSuNQwqoJ1QP9OxGt-97" style="edgeStyle=orthogonalEdgeStyle;rounded=0;orthogonalLoop=1;jettySize=auto;html=1;exitX=0.5;exitY=1;exitDx=0;exitDy=0;entryX=0.5;entryY=0;entryDx=0;entryDy=0;" edge="1" parent="WIyWlLk6GJQsqaUBKTNV-1" source="GVwjSuNQwqoJ1QP9OxGt-98" target="GVwjSuNQwqoJ1QP9OxGt-102">
          <mxGeometry relative="1" as="geometry" />
        </mxCell>
        <mxCell id="GVwjSuNQwqoJ1QP9OxGt-98" value="First Milestone" style="rounded=1;whiteSpace=wrap;html=1;" vertex="1" parent="WIyWlLk6GJQsqaUBKTNV-1">
          <mxGeometry x="470" y="580" width="130" height="60" as="geometry" />
        </mxCell>
        <mxCell id="GVwjSuNQwqoJ1QP9OxGt-99" style="edgeStyle=orthogonalEdgeStyle;rounded=0;orthogonalLoop=1;jettySize=auto;html=1;exitX=0.5;exitY=1;exitDx=0;exitDy=0;entryX=0.461;entryY=0.006;entryDx=0;entryDy=0;entryPerimeter=0;" edge="1" parent="WIyWlLk6GJQsqaUBKTNV-1" source="GVwjSuNQwqoJ1QP9OxGt-96" target="GVwjSuNQwqoJ1QP9OxGt-98">
          <mxGeometry relative="1" as="geometry" />
        </mxCell>
        <mxCell id="GVwjSuNQwqoJ1QP9OxGt-100" style="edgeStyle=orthogonalEdgeStyle;rounded=0;orthogonalLoop=1;jettySize=auto;html=1;exitX=0;exitY=1;exitDx=0;exitDy=0;entryX=0.5;entryY=0;entryDx=0;entryDy=0;" edge="1" parent="WIyWlLk6GJQsqaUBKTNV-1" source="GVwjSuNQwqoJ1QP9OxGt-102" target="GVwjSuNQwqoJ1QP9OxGt-114">
          <mxGeometry relative="1" as="geometry" />
        </mxCell>
        <mxCell id="GVwjSuNQwqoJ1QP9OxGt-101" style="edgeStyle=orthogonalEdgeStyle;rounded=0;orthogonalLoop=1;jettySize=auto;html=1;exitX=0.5;exitY=1;exitDx=0;exitDy=0;" edge="1" parent="WIyWlLk6GJQsqaUBKTNV-1" source="GVwjSuNQwqoJ1QP9OxGt-102" target="GVwjSuNQwqoJ1QP9OxGt-116">
          <mxGeometry relative="1" as="geometry" />
        </mxCell>
        <mxCell id="GVwjSuNQwqoJ1QP9OxGt-102" value="Admin Validation" style="rhombus;whiteSpace=wrap;html=1;fillColor=#ffe6cc;strokeColor=#d79b00;" vertex="1" parent="WIyWlLk6GJQsqaUBKTNV-1">
          <mxGeometry x="480" y="670" width="120" height="80" as="geometry" />
        </mxCell>
        <mxCell id="GVwjSuNQwqoJ1QP9OxGt-103" style="edgeStyle=orthogonalEdgeStyle;rounded=0;orthogonalLoop=1;jettySize=auto;html=1;exitX=0.5;exitY=1;exitDx=0;exitDy=0;entryX=0;entryY=0.5;entryDx=0;entryDy=0;" edge="1" parent="WIyWlLk6GJQsqaUBKTNV-1" source="GVwjSuNQwqoJ1QP9OxGt-104" target="GVwjSuNQwqoJ1QP9OxGt-108">
          <mxGeometry relative="1" as="geometry" />
        </mxCell>
        <mxCell id="GVwjSuNQwqoJ1QP9OxGt-104" value="Funfs Released" style="rounded=0;whiteSpace=wrap;html=1;" vertex="1" parent="WIyWlLk6GJQsqaUBKTNV-1">
          <mxGeometry x="225" y="890" width="120" height="60" as="geometry" />
        </mxCell>
        <mxCell id="GVwjSuNQwqoJ1QP9OxGt-105" value="" style="edgeStyle=orthogonalEdgeStyle;rounded=0;orthogonalLoop=1;jettySize=auto;html=1;" edge="1" parent="WIyWlLk6GJQsqaUBKTNV-1" source="GVwjSuNQwqoJ1QP9OxGt-106" target="GVwjSuNQwqoJ1QP9OxGt-117">
          <mxGeometry relative="1" as="geometry" />
        </mxCell>
        <mxCell id="GVwjSuNQwqoJ1QP9OxGt-106" value="Mission Accomplished" style="rounded=0;whiteSpace=wrap;html=1;" vertex="1" parent="WIyWlLk6GJQsqaUBKTNV-1">
          <mxGeometry x="480" y="860" width="120" height="60" as="geometry" />
        </mxCell>
        <mxCell id="GVwjSuNQwqoJ1QP9OxGt-107" style="edgeStyle=orthogonalEdgeStyle;rounded=0;orthogonalLoop=1;jettySize=auto;html=1;exitX=1;exitY=0.5;exitDx=0;exitDy=0;entryX=1;entryY=0.5;entryDx=0;entryDy=0;" edge="1" parent="WIyWlLk6GJQsqaUBKTNV-1" source="GVwjSuNQwqoJ1QP9OxGt-108" target="GVwjSuNQwqoJ1QP9OxGt-102">
          <mxGeometry relative="1" as="geometry">
            <Array as="points">
              <mxPoint x="680" y="1030" />
              <mxPoint x="680" y="710" />
            </Array>
          </mxGeometry>
        </mxCell>
        <mxCell id="GVwjSuNQwqoJ1QP9OxGt-108" value="Next Milestone" style="rounded=0;whiteSpace=wrap;html=1;" vertex="1" parent="WIyWlLk6GJQsqaUBKTNV-1">
          <mxGeometry x="480" y="1000" width="120" height="60" as="geometry" />
        </mxCell>
        <mxCell id="GVwjSuNQwqoJ1QP9OxGt-109" style="edgeStyle=orthogonalEdgeStyle;rounded=0;orthogonalLoop=1;jettySize=auto;html=1;exitX=0.25;exitY=1;exitDx=0;exitDy=0;entryX=0.75;entryY=0;entryDx=0;entryDy=0;" edge="1" parent="WIyWlLk6GJQsqaUBKTNV-1" source="GVwjSuNQwqoJ1QP9OxGt-110" target="GVwjSuNQwqoJ1QP9OxGt-95">
          <mxGeometry relative="1" as="geometry" />
        </mxCell>
        <mxCell id="GVwjSuNQwqoJ1QP9OxGt-110" value="NO" style="text;html=1;align=center;verticalAlign=middle;whiteSpace=wrap;rounded=0;fillColor=#f8cecc;strokeColor=#b85450;" vertex="1" parent="WIyWlLk6GJQsqaUBKTNV-1">
          <mxGeometry x="290" y="430" width="60" height="30" as="geometry" />
        </mxCell>
        <mxCell id="GVwjSuNQwqoJ1QP9OxGt-111" value="YES" style="text;html=1;align=center;verticalAlign=middle;whiteSpace=wrap;rounded=0;fillColor=#d5e8d4;strokeColor=#82b366;" vertex="1" parent="WIyWlLk6GJQsqaUBKTNV-1">
          <mxGeometry x="480" y="420" width="60" height="30" as="geometry" />
        </mxCell>
        <mxCell id="GVwjSuNQwqoJ1QP9OxGt-112" style="edgeStyle=orthogonalEdgeStyle;rounded=0;orthogonalLoop=1;jettySize=auto;html=1;exitX=0.5;exitY=1;exitDx=0;exitDy=0;entryX=0.406;entryY=-0.067;entryDx=0;entryDy=0;entryPerimeter=0;" edge="1" parent="WIyWlLk6GJQsqaUBKTNV-1" source="GVwjSuNQwqoJ1QP9OxGt-111" target="GVwjSuNQwqoJ1QP9OxGt-96">
          <mxGeometry relative="1" as="geometry" />
        </mxCell>
        <mxCell id="GVwjSuNQwqoJ1QP9OxGt-113" style="edgeStyle=orthogonalEdgeStyle;rounded=0;orthogonalLoop=1;jettySize=auto;html=1;exitX=0;exitY=0.75;exitDx=0;exitDy=0;entryX=0.5;entryY=0;entryDx=0;entryDy=0;" edge="1" parent="WIyWlLk6GJQsqaUBKTNV-1" source="GVwjSuNQwqoJ1QP9OxGt-114" target="GVwjSuNQwqoJ1QP9OxGt-104">
          <mxGeometry relative="1" as="geometry" />
        </mxCell>
        <mxCell id="GVwjSuNQwqoJ1QP9OxGt-114" value="Approved" style="text;html=1;align=center;verticalAlign=middle;whiteSpace=wrap;rounded=0;fillColor=#d5e8d4;strokeColor=#82b366;" vertex="1" parent="WIyWlLk6GJQsqaUBKTNV-1">
          <mxGeometry x="310" y="750" width="60" height="30" as="geometry" />
        </mxCell>
        <mxCell id="GVwjSuNQwqoJ1QP9OxGt-115" style="edgeStyle=orthogonalEdgeStyle;rounded=0;orthogonalLoop=1;jettySize=auto;html=1;exitX=0.5;exitY=1;exitDx=0;exitDy=0;entryX=0.5;entryY=0;entryDx=0;entryDy=0;" edge="1" parent="WIyWlLk6GJQsqaUBKTNV-1" source="GVwjSuNQwqoJ1QP9OxGt-116" target="GVwjSuNQwqoJ1QP9OxGt-106">
          <mxGeometry relative="1" as="geometry" />
        </mxCell>
        <mxCell id="GVwjSuNQwqoJ1QP9OxGt-116" value="Project Complete" style="text;html=1;align=center;verticalAlign=middle;whiteSpace=wrap;rounded=0;fillColor=#dae8fc;strokeColor=#6c8ebf;" vertex="1" parent="WIyWlLk6GJQsqaUBKTNV-1">
          <mxGeometry x="475" y="790" width="130" height="30" as="geometry" />
        </mxCell>
        <mxCell id="GVwjSuNQwqoJ1QP9OxGt-117" value="Mission Accomplished" style="rounded=0;whiteSpace=wrap;html=1;" vertex="1" parent="WIyWlLk6GJQsqaUBKTNV-1">
          <mxGeometry x="480" y="1000" width="120" height="60" as="geometry" />
        </mxCell>
      </root>
    </mxGraphModel>
  </diagram>
</mxfile>
